<?xml version="1.0" encoding="UTF-8"?>
<svg width="148px" height="57px" viewBox="0 0 148 57" version="1.1" xmlns="http://www.w3.org/2000/svg" xmlns:xlink="http://www.w3.org/1999/xlink">
    <!-- Generator: Sketch 51.3 (57544) - http://www.bohemiancoding.com/sketch -->
    <title>LOGO BIG Copy</title>
    <desc>Created with Sketch.</desc>
    <defs></defs>
    <g id="Symbols" stroke="none" stroke-width="1" fill="none" fill-rule="evenodd">
        <g id="log-small">
            <g id="LOGO-BIG-Copy">
                <g id="Group-9-Copy">
                    <polygon id="we" fill="#F5AEA7" points="52.6250857 14.4518389 64.7635367 14.4518389 52.172721 56.4728546 38.3002056 56.4728546 32.4194654 31.6217163 26.463331 56.4728546 12.5908156 56.4728546 0 14.4518389 12.892392 14.4518389 19.4516792 43.971979 25.9355723 14.4518389 39.5819054 14.4518389 46.0657985 43.971979"></polygon>
                    <path d="M132.711944,42.1957025 C134.618277,40.3867678 135.571429,37.8241488 135.571429,34.5077686 C135.571429,31.1913884 134.618277,28.6413312 132.711944,26.8575207 C130.805611,25.0737101 128.615937,24.1818182 126.142857,24.1818182 C123.669777,24.1818182 121.480103,25.0862719 119.57377,26.8952066 C117.667438,28.7041413 116.714286,31.2667603 116.714286,34.5831405 C116.714286,37.8995207 117.667438,40.4495779 119.57377,42.2333884 C121.480103,44.017199 123.669777,44.9090909 126.142857,44.9090909 C128.615937,44.9090909 130.805611,44.0046371 132.711944,42.1957025 Z M108.599806,50.8955823 C104.866583,46.8259502 103,41.6118122 103,35.253012 C103,28.8942118 104.866583,23.6673565 108.599806,19.5722892 C112.333029,15.4772218 116.885978,13.4297189 122.258792,13.4297189 C127.631606,13.4297189 131.755746,15.4390696 134.631336,19.4578313 L134.631336,0 L147.571429,0 L147.571429,56.4658635 L134.631336,56.4658635 L134.631336,50.2851406 C131.503501,54.7617359 127.316301,57 122.06961,57 C116.822918,57 112.333029,54.9652145 108.599806,50.8955823 Z" id="data" fill="#93E5B6"></path>
                    <path d="M87.7163205,43.1436077 C89.5754791,41.3362432 90.5050445,38.7758484 90.5050445,35.4623468 C90.5050445,32.1488451 89.5754791,29.6010013 87.7163205,27.8187391 C85.8571618,26.0364768 83.7216738,25.145359 81.3097923,25.145359 C78.8979108,25.145359 76.7624227,26.0490277 74.9032641,27.8563923 C73.0441054,29.6637568 72.1145401,32.2241516 72.1145401,35.5376532 C72.1145401,38.8511549 73.0441054,41.3989987 74.9032641,43.1812609 C76.7624227,44.9635232 78.8979108,45.854641 81.3097923,45.854641 C83.7216738,45.854641 85.8571618,44.9509723 87.7163205,43.1436077 Z M64.5774481,50.9754816 C60.8591308,46.9591159 59,41.8132246 59,35.5376532 C59,29.2620819 60.8591308,24.1036396 64.5774481,20.0621716 C68.2957654,16.0207037 72.830537,14 78.1818991,14 C83.5332612,14 87.6409352,15.9830508 90.5050445,19.9492119 L90.5050445,14.4518389 L103.393472,14.4518389 L103.393472,56.4728546 L90.5050445,56.4728546 L90.5050445,50.3730298 C87.3896976,54.791032 83.2192151,57 77.9934718,57 C72.7677286,57 68.2957654,54.9918473 64.5774481,50.9754816 Z" id="are" fill="#BBC2C9"></path>
                </g>
            </g>
        </g>
    </g>
</svg>