<?xml version="1.0" encoding="UTF-8"?>
<svg width="435px" height="57px" viewBox="0 0 435 57" version="1.1" xmlns="http://www.w3.org/2000/svg" xmlns:xlink="http://www.w3.org/1999/xlink">
    <!-- Generator: Sketch 51.3 (57544) - http://www.bohemiancoding.com/sketch -->
    <title>LOGO BIG</title>
    <desc>Created with Sketch.</desc>
    <defs></defs>
    <g id="Symbols" stroke="none" stroke-width="1" fill="none" fill-rule="evenodd">
        <g id="logo-big">
            <g id="LOGO-BIG">
                <g id="Group-9-Copy">
                    <path d="M52.6250857,12.4518389 L64.7635367,12.4518389 L52.172721,54.4728546 L38.3002056,54.4728546 L32.4194654,29.6217163 L26.463331,54.4728546 L12.5908156,54.4728546 L0,12.4518389 L12.892392,12.4518389 L19.4516792,41.971979 L25.9355723,12.4518389 L39.5819054,12.4518389 L46.0657985,41.971979 L52.6250857,12.4518389 Z M88.5126799,55 C82.3805953,55 77.3543719,53.0295001 73.4338588,49.0884413 C69.5133457,45.1473825 67.5531186,39.9136345 67.5531186,33.3870403 C67.5531186,26.8604461 69.5007802,21.6643509 73.3961618,17.7985989 C77.2915434,13.932847 82.3303324,12 88.5126799,12 C94.6950275,12 99.8217754,13.9077451 103.893077,17.7232925 C107.96438,21.5388399 110,26.8353426 110,33.6129597 C110,35.0688923 109.899476,36.4243954 109.698424,37.6795096 L80.747087,37.6795096 C80.998402,39.5370788 81.8277289,41.0557442 83.2350925,42.2355517 C84.6424562,43.4153591 86.1628888,44.0052539 87.7964359,44.0052539 C89.429983,44.0052539 90.6488422,43.8420915 91.45305,43.5157618 C92.2572578,43.1894321 92.8478391,42.8631073 93.2248115,42.5367776 C93.6017839,42.2104479 94.0918407,41.6707568 94.6949966,40.9176883 L108.642906,40.9176883 C107.436594,45.1348722 105.024007,48.5361809 101.405072,51.1217163 C97.7861368,53.7072517 93.4887158,55 88.5126799,55 Z M96.5798492,29.6217163 C96.3787973,27.663738 95.5243393,26.0697668 94.0164496,24.8397548 C92.50856,23.6097428 90.7242507,22.9947461 88.6634681,22.9947461 C86.6026856,22.9947461 84.8686385,23.6097428 83.4612748,24.8397548 C82.0539112,26.0697668 81.1743221,27.663738 80.8224812,29.6217163 L96.5798492,29.6217163 Z" id="we" fill="#F5AEA7"></path>
                    <path d="M284.711944,42.1957025 C286.618277,40.3867678 287.571429,37.8241488 287.571429,34.5077686 C287.571429,31.1913884 286.618277,28.6413312 284.711944,26.8575207 C282.805611,25.0737101 280.615937,24.1818182 278.142857,24.1818182 C275.669777,24.1818182 273.480103,25.0862719 271.57377,26.8952066 C269.667438,28.7041413 268.714286,31.2667603 268.714286,34.5831405 C268.714286,37.8995207 269.667438,40.4495779 271.57377,42.2333884 C273.480103,44.017199 275.669777,44.9090909 278.142857,44.9090909 C280.615937,44.9090909 282.805611,44.0046371 284.711944,42.1957025 Z M260.599806,50.8955823 C256.866583,46.8259502 255,41.6118122 255,35.253012 C255,28.8942118 256.866583,23.6673565 260.599806,19.5722892 C264.333029,15.4772218 268.885978,13.4297189 274.258792,13.4297189 C279.631606,13.4297189 283.755746,15.4390696 286.631336,19.4578313 L286.631336,0 L299.571429,0 L299.571429,56.4658635 L286.631336,56.4658635 L286.631336,50.2851406 C283.503501,54.7617359 279.316301,57 274.06961,57 C268.822918,57 264.333029,54.9652145 260.599806,50.8955823 Z M336.140515,42.1957025 C338.046848,40.3867678 339,37.8241488 339,34.5077686 C339,31.1913884 338.046848,28.6413312 336.140515,26.8575207 C334.234183,25.0737101 332.044509,24.1818182 329.571429,24.1818182 C327.098348,24.1818182 324.908675,25.0862719 323.002342,26.8952066 C321.096009,28.7041413 320.142857,31.2667603 320.142857,34.5831405 C320.142857,37.8995207 321.096009,40.4495779 323.002342,42.2333884 C324.908675,44.017199 327.098348,44.9090909 329.571429,44.9090909 C332.044509,44.9090909 334.234183,44.0046371 336.140515,42.1957025 Z M313.742663,50.950008 C310.00944,46.9166598 308.142857,41.7490099 308.142857,35.4469034 C308.142857,29.1447968 310.00944,23.9645429 313.742663,19.9059863 C317.475886,15.8474297 322.028836,13.8181818 327.401649,13.8181818 C332.774463,13.8181818 336.898603,15.8096176 339.774194,19.792549 L339.774194,14.2719312 L352.714286,14.2719312 L352.714286,56.4706257 L339.774194,56.4706257 L339.774194,50.3450088 C336.646358,54.7816918 332.459158,57 327.212467,57 C321.965775,57 317.475886,54.9833562 313.742663,50.950008 Z M380.617347,45.8125491 L385.285714,45.8125491 L385.285714,57 L378.627551,57 C373.831609,57 370.119911,55.9327021 367.492347,53.7980744 C364.864783,51.6634467 363.55102,47.9986287 363.55102,42.8035106 L363.55102,24.9035892 L359.571429,24.9035892 L359.571429,13.9476028 L363.55102,13.9476028 L363.55102,3.45454545 L376.637755,3.45454545 L376.637755,13.9476028 L385.209184,13.9476028 L385.209184,24.9035892 L376.637755,24.9035892 L376.637755,42.8035106 C376.637755,44.8095463 377.964272,45.8125491 380.617347,45.8125491 Z M420.140515,42.1957025 C422.046848,40.3867678 423,37.8241488 423,34.5077686 C423,31.1913884 422.046848,28.6413312 420.140515,26.8575207 C418.234183,25.0737101 416.044509,24.1818182 413.571429,24.1818182 C411.098348,24.1818182 408.908675,25.0862719 407.002342,26.8952066 C405.096009,28.7041413 404.142857,31.2667603 404.142857,34.5831405 C404.142857,37.8995207 405.096009,40.4495779 407.002342,42.2333884 C408.908675,44.017199 411.098348,44.9090909 413.571429,44.9090909 C416.044509,44.9090909 418.234183,44.0046371 420.140515,42.1957025 Z M396.028377,50.950008 C392.295155,46.9166598 390.428571,41.7490099 390.428571,35.4469034 C390.428571,29.1447968 392.295155,23.9645429 396.028377,19.9059863 C399.7616,15.8474297 404.31455,13.8181818 409.687364,13.8181818 C415.060177,13.8181818 419.184317,15.8096176 422.059908,19.792549 L422.059908,14.2719312 L435,14.2719312 L435,56.4706257 L422.059908,56.4706257 L422.059908,50.3450088 C418.932073,54.7816918 414.744872,57 409.498181,57 C404.25149,57 399.7616,54.9833562 396.028377,50.950008 Z" id="data" fill="#93E5B6"></path>
                    <path d="M147.71632,41.1436077 C149.575479,39.3362432 150.505045,36.7758484 150.505045,33.4623468 C150.505045,30.1488451 149.575479,27.6010013 147.71632,25.8187391 C145.857162,24.0364768 143.721674,23.145359 141.309792,23.145359 C138.897911,23.145359 136.762423,24.0490277 134.903264,25.8563923 C133.044105,27.6637568 132.11454,30.2241516 132.11454,33.5376532 C132.11454,36.8511549 133.044105,39.3989987 134.903264,41.1812609 C136.762423,42.9635232 138.897911,43.854641 141.309792,43.854641 C143.721674,43.854641 145.857162,42.9509723 147.71632,41.1436077 Z M124.577448,48.9754816 C120.859131,44.9591159 119,39.8132246 119,33.5376532 C119,27.2620819 120.859131,22.1036396 124.577448,18.0621716 C128.295765,14.0207037 132.830537,12 138.181899,12 C143.533261,12 147.640935,13.9830508 150.505045,17.9492119 L150.505045,12.4518389 L163.393472,12.4518389 L163.393472,54.4728546 L150.505045,54.4728546 L150.505045,48.3730298 C147.389698,52.791032 143.219215,55 137.993472,55 C132.767729,55 128.295765,52.9918473 124.577448,48.9754816 Z M187.587537,12.4518389 L187.587537,20.2837128 C190.602389,14.76121 194.622131,12 199.646884,12 L199.646884,25.1033275 L196.481306,25.1033275 C193.516701,25.1033275 191.293281,25.8061809 189.810979,27.2119089 C188.328677,28.6176369 187.587537,31.077624 187.587537,34.591944 L187.587537,54.4728546 L174.69911,54.4728546 L174.69911,12.4518389 L187.587537,12.4518389 Z M224.519288,55 C218.389089,55 213.364411,53.0295001 209.445104,49.0884413 C205.525796,45.1473825 203.566172,39.9136345 203.566172,33.3870403 C203.566172,26.8604461 205.513235,21.6643509 209.407418,17.7985989 C213.301602,13.932847 218.338842,12 224.519288,12 C230.699734,12 235.824905,13.9077451 239.894955,17.7232925 C243.965006,21.5388399 246,26.8353426 246,33.6129597 C246,35.0688923 245.899506,36.4243954 245.698516,37.6795096 L216.756083,37.6795096 C217.007321,39.5370788 217.836393,41.0557442 219.243323,42.2355517 C220.650254,43.4153591 222.170219,44.0052539 223.803264,44.0052539 C225.436309,44.0052539 226.654793,43.8420915 227.458754,43.5157618 C228.262714,43.1894321 228.853114,42.8631073 229.22997,42.5367776 C229.606827,42.2104479 230.096733,41.6707568 230.699703,40.9176883 L244.643323,40.9176883 C243.437383,45.1348722 241.025537,48.5361809 237.407715,51.1217163 C233.789893,53.7072517 229.493793,55 224.519288,55 Z M232.583976,29.6217163 C232.382986,27.663738 231.528791,26.0697668 230.021365,24.8397548 C228.513939,23.6097428 226.730178,22.9947461 224.67003,22.9947461 C222.609881,22.9947461 220.876367,23.6097428 219.469436,24.8397548 C218.062505,26.0697668 217.183187,27.663738 216.831454,29.6217163 L232.583976,29.6217163 Z" id="are" fill="#BBC2C9"></path>
                </g>
            </g>
        </g>
    </g>
</svg>